<?xml version="1.0" standalone="no"?>
<!DOCTYPE svg PUBLIC "-//W3C//DTD SVG 20010904//EN"
 "http://www.w3.org/TR/2001/REC-SVG-20010904/DTD/svg10.dtd">
<svg version="1.0" xmlns="http://www.w3.org/2000/svg"
 width="252.000000pt" height="252.000000pt" viewBox="0 0 252.000000 252.000000"
 preserveAspectRatio="xMidYMid meet">

<g transform="translate(0.000000,252.000000) scale(0.100000,-0.100000)"
fill="#000000" stroke="none">
<path d="M1304 2246 c-23 -23 -34 -43 -34 -63 0 -33 44 -166 66 -200 8 -12 14
-29 14 -36 0 -8 7 -20 15 -27 13 -11 15 -8 15 15 0 24 11 42 61 103 16 20 39
92 39 124 0 44 -27 88 -65 104 -52 21 -74 17 -111 -20z"/>
<path d="M1712 2238 c-86 -29 -194 -210 -221 -370 l-8 -47 47 39 c26 22 58 40
71 40 44 1 173 40 209 64 41 27 80 99 80 147 0 90 -92 155 -178 127z"/>
<path d="M1710 1833 c-29 -6 -110 -60 -110 -73 0 -6 7 -10 15 -10 27 0 153
-79 163 -102 2 -5 11 -8 20 -8 10 0 26 -7 36 -15 33 -25 91 -19 115 11 12 15
21 36 21 46 0 21 -39 101 -53 106 -4 2 -14 10 -22 19 -29 28 -110 40 -185 26z"/>
<path d="M469 1683 c-17 -20 -35 -58 -42 -88 -3 -11 -15 -45 -27 -75 -26 -66
-47 -123 -92 -250 -19 -52 -40 -105 -47 -118 -20 -37 -5 -64 32 -60 28 3 34 9
53 58 12 30 27 66 32 80 16 36 42 110 54 150 5 19 14 40 18 45 4 6 13 26 18
45 22 71 50 148 63 168 11 18 10 24 -5 41 -23 26 -38 26 -57 4z"/>
<path d="M626 1633 c-12 -12 -46 -95 -46 -112 0 -9 -4 -21 -9 -26 -5 -6 -19
-39 -31 -75 -12 -36 -26 -69 -31 -75 -5 -5 -9 -17 -9 -27 0 -10 -4 -26 -10
-36 -5 -9 -16 -35 -24 -57 -32 -92 -39 -111 -47 -127 -14 -27 -11 -43 10 -62
22 -20 44 -13 58 17 19 41 53 132 53 142 0 6 6 21 13 36 8 14 26 59 40 101 14
41 32 90 40 109 64 151 70 199 23 199 -12 0 -26 -3 -30 -7z"/>
<path d="M731 1458 c-7 -18 -19 -48 -27 -66 -8 -18 -14 -38 -14 -45 0 -7 -9
-32 -20 -55 -11 -22 -20 -46 -20 -52 0 -5 -8 -29 -18 -53 -43 -99 -67 -180
-58 -202 7 -18 52 -20 63 -2 10 15 15 29 123 322 10 28 28 75 39 105 12 30 21
55 21 56 0 1 -9 0 -20 -3 -12 -3 -29 2 -39 11 -17 16 -19 15 -30 -16z"/>
<path d="M1792 1073 c-7 -13 -5 -47 8 -113 11 -52 29 -151 40 -220 38 -221 43
-241 57 -256 10 -10 20 -11 33 -4 27 14 29 31 15 106 -7 38 -23 125 -35 194
-52 301 -53 305 -82 308 -18 2 -30 -3 -36 -15z"/>
<path d="M1637 1046 c-6 -15 4 -103 23 -206 39 -218 50 -280 55 -323 5 -38 12
-50 30 -59 19 -8 27 -7 40 6 14 13 15 24 6 69 -5 28 -17 97 -26 152 -14 83
-32 190 -61 353 -3 17 -11 22 -33 22 -16 0 -31 -6 -34 -14z"/>
<path d="M2005 1011 c-3 -6 -15 -11 -25 -11 -17 0 -18 -6 -13 -57 3 -32 11
-83 19 -114 8 -31 14 -70 14 -85 0 -16 10 -75 22 -131 l23 -103 32 0 c31 0 33
2 33 33 0 31 -11 98 -51 302 -10 55 -20 115 -22 134 -2 34 -19 51 -32 32z"/>
<path d="M738 626 c-24 -18 -23 -43 5 -83 26 -39 86 -53 148 -34 44 13 50 26
17 36 -13 4 -37 21 -54 39 -55 55 -85 66 -116 42z"/>
<path d="M957 465 c-16 -8 -59 -18 -95 -21 -58 -6 -72 -12 -99 -40 -42 -41
-43 -76 -4 -115 33 -33 50 -35 89 -15 36 19 65 51 96 108 25 44 48 98 43 98
-1 0 -15 -7 -30 -15z"/>
<path d="M1026 389 c-9 -16 -21 -29 -25 -29 -5 0 -16 -19 -25 -42 -14 -33 -15
-46 -5 -70 6 -15 17 -28 24 -28 8 0 20 -3 28 -6 24 -9 57 31 57 69 0 18 -8 56
-18 84 l-18 52 -18 -30z"/>
</g>
</svg>
